# xmcd
#
# Track frame offsets: 
#        150
#        20432
#        45262
#        102555
#        140570
#        179057
#        198577
#        213172
#        256037
#        301417
#        334112
#
# Disc length: 4693 seconds
#
# Revision: 2
# Processed by: cddbd v1.5.2PL0 Copyright (c) Steve Scherf et al.
# Submitted via: ExactAudioCopy v1.0b4
#
DISCID=9b12530b
DTITLE=Gregor Hilden Band - Greg's Bluesnight - Live In Concert
DYEAR=2006
DGENRE=Blues
TTITLE0=C. C. Rider Feat. Ron Williams
TTITLE1=Bad Bad Whiskey Feat. Horst Bergmeyer
TTITLE2=I Gotta Move Out Of This Neighborhood Feat. Tommy Schneller
TTITLE3=Big Boss Man Feat. Fast Eddie Wilkinson
TTITLE4=Cold Chill Feat. Larry Garner
TTITLE5=Steal Away Feat. MZ Dee
TTITLE6=Going Home Feat. Al Jones
TTITLE7=Inner City Blues Feat. Jim Kahr
TTITLE8=My Secret Feat. Travis Haddix
TTITLE9=I Hear You Knocking Feat. Tom Principato
TTITLE10=Bonus Track Medley Feat. Boo Boo Davis
EXTD=YEAR: 2006
EXTT0=
EXTT1=
EXTT2=
EXTT3=
EXTT4=
EXTT5=
EXTT6=
EXTT7=
EXTT8=
EXTT9=
EXTT10=
PLAYORDER=
